<svg width="40" height="40" viewBox="0 0 40 40" fill="none" xmlns="http://www.w3.org/2000/svg">
<path d="M39.7492 16.8426C40.4442 21.1901 39.6853 25.6454 37.5902 29.5176C35.495 33.3898 32.1807 36.4625 28.1613 38.2591C24.1418 40.0556 19.6419 40.4757 15.3594 39.4542C11.0768 38.4326 7.25106 36.0265 4.47539 32.609C1.69972 29.1915 0.129281 24.9536 0.00763556 20.5526C-0.11401 16.1516 1.21994 11.8334 3.80259 8.26783C6.38524 4.70222 10.0723 2.08845 14.2918 0.831883C18.5114 -0.424682 23.0277 -0.253812 27.1402 1.31799L25.7122 5.05439C22.4221 3.79695 18.8091 3.66025 15.4335 4.66551C12.0578 5.67076 9.10819 7.76178 7.04207 10.6143C4.97595 13.4667 3.90879 16.9213 4.00611 20.4421C4.10343 23.9629 5.35978 27.3532 7.58031 30.0872C9.80085 32.8212 12.8615 34.7461 16.2875 35.5633C19.7135 36.3806 23.3135 36.0445 26.529 34.6073C29.7446 33.17 32.396 30.7119 34.0722 27.6141C35.7483 24.5163 36.3554 20.9521 35.7994 17.4741L39.7492 16.8426Z" fill="#355081"/>
<line x1="16.9393" y1="26.9393" x2="34.9393" y2="8.93934" stroke="#55D186" stroke-width="3"/>
</svg>
