<svg width="40" height="44" viewBox="0 0 44 44" fill="none" xmlns="http://www.w3.org/2000/svg">
<path d="M22 36.6667L31.7778 26.8889L28.3556 23.4667L24.4444 27.3778V17.1111H19.5556V27.3778L15.6444 23.4667L12.2222 26.8889L22 36.6667ZM4.88889 12.2222V39.1111H39.1111V12.2222H4.88889ZM4.88889 44C3.54444 44 2.38333 43.5315 1.40556 42.5944C0.468519 41.6167 0 40.4556 0 39.1111V8.61667C0 8.0463 0.081482 7.4963 0.244445 6.96667C0.448149 6.43704 0.733334 5.94815 1.1 5.5L4.15556 1.77222C4.6037 1.20185 5.1537 0.774074 5.80555 0.488888C6.49815 0.162963 7.21111 0 7.94444 0H36.0556C36.7889 0 37.4815 0.162963 38.1333 0.488888C38.8259 0.774074 39.3963 1.20185 39.8444 1.77222L42.9 5.5C43.2667 5.94815 43.5315 6.43704 43.6944 6.96667C43.8981 7.4963 44 8.0463 44 8.61667V39.1111C44 40.4556 43.5111 41.6167 42.5333 42.5944C41.5963 43.5315 40.4556 44 39.1111 44H4.88889ZM5.86667 7.33333H38.1333L36.0556 4.88889H7.94444L5.86667 7.33333Z" stroke="currentColor" fill="#000" stroke-width="0.1"/>
</svg>