<svg width="4779" height="683" viewBox="0 0 4779 683" fill="none" xmlns="http://www.w3.org/2000/svg">
<mask id="mask0_7_21" style="mask-type:luminance" maskUnits="userSpaceOnUse" x="0" y="120" width="437" height="438">
<path d="M436.162 120.919H0V557.081H436.162V120.919Z" fill="white"/>
</mask>
<g mask="url(#mask0_7_21)">
<mask id="mask1_7_21" style="mask-type:luminance" maskUnits="userSpaceOnUse" x="0" y="120" width="437" height="438">
<path d="M436.162 120.919H0V557.081H436.162V120.919Z" fill="white"/>
</mask>
<g mask="url(#mask1_7_21)">
<path d="M218.081 173.258L436.162 557.081H0.00012207L218.081 173.258Z" fill="#8CB3FF"/>
<path d="M436.162 120.919H0V173.258H436.162V120.919Z" fill="#465A7F"/>
</g>
</g>
<path d="M558.956 560V127.474H888.135V157.457H590.853V320.133H854.324V349.478H590.853V530.017H891.325V560H558.956ZM1281.4 555.534C1294.58 566.592 1311.38 572.121 1331.8 572.121H1400.06V602.104H1331.8C1295.65 602.104 1266.94 589.133 1245.67 563.19C1232.49 564.891 1218.67 565.742 1204.21 565.742C1132.76 565.742 1076.62 546.178 1035.79 507.051C995.386 467.498 975.185 413.273 975.185 344.375C975.185 276.327 995.599 223.591 1036.43 186.165C1077.26 148.313 1133.18 129.387 1204.21 129.387C1275.23 129.387 1331.16 148.313 1371.99 186.165C1413.24 223.591 1433.87 276.327 1433.87 344.375C1433.87 397.112 1421.11 441.768 1395.59 478.343C1368.8 516.194 1330.73 541.925 1281.4 555.534ZM1349.02 207.855C1314.57 175.532 1266.3 159.371 1204.21 159.371C1142.54 159.371 1094.27 175.532 1059.39 207.855C1024.94 240.177 1007.72 285.684 1007.72 344.375C1007.72 399.238 1023.24 443.469 1054.29 477.067C1061.95 458.354 1074.7 443.681 1092.57 433.049C1110.85 421.991 1130.84 416.462 1152.53 416.462C1181.03 416.462 1205.7 425.181 1226.53 442.618C1247.37 460.055 1257.79 482.596 1257.79 510.24C1257.79 516.62 1259.07 522.999 1261.62 529.379C1307.13 518.746 1342.22 496.631 1366.88 463.032C1389.85 431.135 1401.33 391.583 1401.33 344.375C1401.33 285.684 1383.89 240.177 1349.02 207.855ZM1226.53 509.602C1226.53 490.464 1219.3 475.153 1204.84 463.67C1190.81 451.762 1173.37 445.808 1152.53 445.808C1134.67 445.808 1118.51 450.699 1104.05 460.481C1090.01 470.262 1081.93 483.234 1079.81 499.395C1113.41 523.637 1154.87 535.758 1204.21 535.758C1213.56 535.758 1222.49 535.333 1231 534.482C1228.02 526.402 1226.53 518.108 1226.53 509.602ZM1863.74 526.189C1833.54 551.707 1788.03 564.466 1727.22 564.466C1665.55 564.466 1619.83 551.494 1590.06 525.551C1558.16 498.332 1542.21 455.377 1542.21 396.686V127.474H1574.75V396.686C1574.75 488.55 1625.57 534.482 1727.22 534.482C1828.44 534.482 1879.05 489.188 1879.05 398.6V127.474H1911.58V397.962C1911.58 456.228 1895.63 498.97 1863.74 526.189ZM2036.02 560V127.474H2068.56V560H2036.02Z" fill="#8CB3FF"/>
<path d="M2165.08 550V125.499H2206.4V511.807H2474.37V550H2165.08ZM2550.06 550V125.499H2591.38V550H2550.06ZM3017 525.582C2987.79 541.861 2950.64 550 2905.56 550H2697.69V125.499H2913.7C2954.18 125.499 2987.58 134.056 3013.87 151.169C3044.76 171.205 3060.2 200.632 3060.2 239.45C3060.2 277.017 3039.96 306.027 2999.47 326.479C3049.14 344.01 3073.98 378.446 3073.98 429.787C3073.98 472.363 3054.99 504.294 3017 525.582ZM2912.44 163.691H2739.01V310.201H2911.82C2942.29 310.201 2966.91 304.566 2985.7 293.296C3007.82 279.939 3018.88 260.947 3018.88 236.32C3018.88 217.119 3012.41 201.675 2999.47 189.988C2979.85 172.457 2950.84 163.691 2912.44 163.691ZM2910.57 348.393H2739.01V511.807H2913.07C2946.88 511.807 2974.43 505.755 2995.72 493.65C3020.76 479.041 3033.28 457.962 3033.28 430.413C3033.28 417.891 3030.99 406.83 3026.4 397.23C3010.95 364.672 2972.34 348.393 2910.57 348.393ZM3471.31 342.758C3510.54 361.541 3530.16 393.89 3530.16 439.805V550H3488.84V441.683C3488.84 389.925 3451.48 364.046 3376.77 364.046H3214.6V550H3173.28V125.499H3382.4C3485.08 125.499 3536.42 163.483 3536.42 239.45C3536.42 288.287 3514.72 322.723 3471.31 342.758ZM3383.65 163.691H3214.6V325.227H3373.64C3408.7 325.227 3436.87 318.966 3458.16 306.444C3482.79 291.835 3495.1 269.921 3495.1 240.703C3495.1 189.362 3457.95 163.691 3383.65 163.691ZM3643.86 550V125.499H3685.19V550H3643.86Z" fill="#718FCD"/>
<path d="M4113.99 530.302C4081.44 556.433 4032.6 569.498 3967.49 569.498C3833.84 569.498 3767.01 512.097 3767.01 397.294V129.35H3828.7V397.294C3828.7 436.704 3839.62 466.047 3861.47 485.324C3883.74 504.172 3919.08 513.596 3967.49 513.596C4015.47 513.596 4050.81 503.958 4073.51 484.681C4095.36 466.69 4106.28 438.203 4106.28 399.222V129.35H4167.97V398.579C4167.97 457.694 4149.97 501.602 4113.99 530.302ZM4703.25 565V257.86L4536.83 565H4492.49L4326.07 257.86V565H4264.39V129.35H4324.79L4514.34 479.541L4704.54 129.35H4764.94V565H4703.25Z" fill="#465A7F"/>
</svg>
