<svg width="1563" height="1834" viewBox="0 0 1563 1834" fill="none" xmlns="http://www.w3.org/2000/svg">
<g clip-path="url(#clip0_7_7)">
<path d="M26.7937 560V127.474H355.973V157.457H58.6909V320.133H322.162V349.478H58.6909V530.017H359.163V560H26.7937ZM749.236 555.534C762.42 566.592 779.219 572.121 799.634 572.121H867.894V602.104H799.634C763.483 602.104 734.776 589.133 713.511 563.19C700.327 564.891 686.505 565.742 672.045 565.742C600.595 565.742 544.456 546.178 503.627 507.051C463.224 467.498 443.023 413.273 443.023 344.375C443.023 276.327 463.437 223.591 504.265 186.165C545.094 148.313 601.02 129.387 672.045 129.387C743.069 129.387 798.996 148.313 839.824 186.165C881.078 223.591 901.705 276.327 901.705 344.375C901.705 397.112 888.946 441.768 863.428 478.343C836.634 516.194 798.57 541.925 749.236 555.534ZM816.858 207.855C782.409 175.532 734.138 159.371 672.045 159.371C610.377 159.371 562.106 175.532 527.231 207.855C492.782 240.177 475.558 285.684 475.558 344.375C475.558 399.238 491.081 443.469 522.128 477.067C529.783 458.354 542.542 443.681 560.404 433.049C578.692 421.991 598.681 416.462 620.371 416.462C648.866 416.462 673.533 425.181 694.373 442.618C715.212 460.055 725.632 482.596 725.632 510.24C725.632 516.62 726.908 522.999 729.46 529.379C774.966 518.746 810.053 496.631 834.72 463.032C857.686 431.135 869.169 391.583 869.169 344.375C869.169 285.684 851.732 240.177 816.858 207.855ZM694.373 509.602C694.373 490.464 687.143 475.153 672.683 463.67C658.648 451.762 641.211 445.808 620.371 445.808C602.509 445.808 586.347 450.699 571.887 460.481C557.853 470.262 549.772 483.234 547.645 499.395C581.244 523.637 622.71 535.758 672.045 535.758C681.401 535.758 690.332 535.333 698.838 534.482C695.861 526.402 694.373 518.108 694.373 509.602ZM1331.57 526.189C1301.38 551.707 1255.87 564.466 1195.05 564.466C1133.39 564.466 1087.67 551.494 1057.9 525.551C1026 498.332 1010.05 455.377 1010.05 396.686V127.474H1042.59V396.686C1042.59 488.55 1093.41 534.482 1195.05 534.482C1296.27 534.482 1346.89 489.188 1346.89 398.6V127.474H1379.42V397.962C1379.42 456.228 1363.47 498.97 1331.57 526.189ZM1503.86 560V127.474H1536.39V560H1503.86Z" fill="#8CB3FF"/>
<path d="M21.9138 1132V707.499H63.2369V1093.81H331.211V1132H21.9138ZM406.897 1132V707.499H448.22V1132H406.897ZM873.841 1107.58C844.623 1123.86 807.474 1132 762.394 1132H554.526V707.499H770.534C811.022 707.499 844.414 716.056 870.711 733.169C901.599 753.205 917.043 782.632 917.043 821.45C917.043 859.017 896.799 888.027 856.31 908.479C905.982 926.01 930.817 960.446 930.817 1011.79C930.817 1054.36 911.825 1086.29 873.841 1107.58ZM769.281 745.691H595.849V892.201H768.655C799.126 892.201 823.753 886.566 842.536 875.296C864.658 861.939 875.72 842.947 875.72 818.32C875.72 799.119 869.25 783.675 856.31 771.988C836.692 754.457 807.683 745.691 769.281 745.691ZM767.403 930.393H595.849V1093.81H769.907C803.717 1093.81 831.266 1087.76 852.554 1075.65C877.598 1061.04 890.12 1039.96 890.12 1012.41C890.12 999.891 887.824 988.83 883.233 979.23C867.789 946.672 829.179 930.393 767.403 930.393ZM1328.15 924.758C1367.38 943.541 1387 975.89 1387 1021.8V1132H1345.68V1023.68C1345.68 971.925 1308.32 946.046 1233.6 946.046H1071.44V1132H1030.12V707.499H1239.24C1341.92 707.499 1393.26 745.483 1393.26 821.45C1393.26 870.287 1371.56 904.723 1328.15 924.758ZM1240.49 745.691H1071.44V907.227H1230.47C1265.54 907.227 1293.71 900.966 1315 888.444C1339.63 873.835 1351.94 851.921 1351.94 822.703C1351.94 771.362 1314.79 745.691 1240.49 745.691ZM1500.7 1132V707.499H1542.03V1132H1500.7Z" fill="#718FCD"/>
<path d="M359.829 1681.3C327.273 1707.43 278.439 1720.5 213.327 1720.5C79.6765 1720.5 12.851 1663.1 12.851 1548.29V1280.35H74.536V1548.29C74.536 1587.7 85.4594 1617.05 107.306 1636.32C129.581 1655.17 164.922 1664.6 213.327 1664.6C261.305 1664.6 296.645 1654.96 319.348 1635.68C341.195 1617.69 352.119 1589.2 352.119 1550.22V1280.35H413.804V1549.58C413.804 1608.69 395.812 1652.6 359.829 1681.3ZM949.09 1716V1408.86L782.669 1716H738.333L571.912 1408.86V1716H510.227V1280.35H570.626L760.179 1630.54L950.375 1280.35H1010.77V1716H949.09Z" fill="#465A7F"/>
<mask id="mask0_7_7" style="mask-type:luminance" maskUnits="userSpaceOnUse" x="1126" y="1279" width="438" height="437">
<path d="M1563 1279.28H1126.84V1715.44H1563V1279.28Z" fill="white"/>
</mask>
<g mask="url(#mask0_7_7)">
<mask id="mask1_7_7" style="mask-type:luminance" maskUnits="userSpaceOnUse" x="1126" y="1279" width="438" height="437">
<path d="M1563 1279.28H1126.84V1715.44H1563V1279.28Z" fill="white"/>
</mask>
<g mask="url(#mask1_7_7)">
<path d="M1344.92 1331.62L1563 1715.45H1126.84L1344.92 1331.62Z" fill="#8CB3FF"/>
<path d="M1563 1279.28H1126.84V1331.62H1563V1279.28Z" fill="#465A7F"/>
</g>
</g>
</g>
<defs>
<clipPath id="clip0_7_7">
<rect width="1563" height="1834" fill="white"/>
</clipPath>
</defs>
</svg>
