<svg width="804" height="691" viewBox="0 0 804 691" fill="none" xmlns="http://www.w3.org/2000/svg">
<path d="M714.857 543.346C749.893 506.599 767.498 453.904 761.591 403.476C756.694 361.678 736.681 322.139 736.519 280.054C736.422 254.761 743.548 229.952 744.783 204.686C750.075 96.2564 626.536 30.2253 537.477 11.5905C410.997 -14.8754 278.609 6.68208 158.059 48.957C108.96 66.1673 56.3418 91.4874 37.5056 139.983C26.3494 168.698 29.2333 200.618 27.7198 231.384C23.4965 317.409 -16.0222 403.987 7.33522 486.888C26.2682 554.081 88.9121 606.645 158.369 613.624C195.736 617.379 233.261 609.068 270.813 609.308C319.433 609.621 366.701 624.203 414.786 631.396C468.562 639.439 517.495 624.598 569.052 621.343C617.107 618.312 682.441 577.345 714.857 543.346Z" fill="#718FCD"/>
<path d="M617.629 595.465L548.509 554.127" stroke="black" stroke-miterlimit="10"/>
<path d="M548.509 554.127L475.015 595.438" stroke="black" stroke-miterlimit="10"/>
<path d="M548.316 431.371V554.185" stroke="black" stroke-miterlimit="10"/>
<path d="M545.327 607.597L548.509 554.127" stroke="black" stroke-miterlimit="10"/>
<path d="M477.84 602.758C482.783 602.758 486.79 598.751 486.79 593.808C486.79 588.866 482.783 584.859 477.84 584.859C472.898 584.859 468.891 588.866 468.891 593.808C468.891 598.751 472.898 602.758 477.84 602.758Z" fill="#1C0C00"/>
<path d="M545.087 616.786C550.03 616.786 554.037 612.78 554.037 607.837C554.037 602.894 550.03 598.887 545.087 598.887C540.144 598.887 536.137 602.894 536.137 607.837C536.137 612.78 540.144 616.786 545.087 616.786Z" fill="#1C0C00"/>
<path d="M617.629 604.415C622.572 604.415 626.579 600.408 626.579 595.465C626.579 590.522 622.572 586.515 617.629 586.515C612.687 586.515 608.68 590.522 608.68 595.465C608.68 600.408 612.687 604.415 617.629 604.415Z" fill="#1C0C00"/>
<path d="M169.548 171.191C178.711 169.673 187.448 165.667 194.578 159.717C197.09 157.619 199.479 155.177 200.594 152.099C201.709 149.022 201.26 145.182 198.778 143.045C196.448 141.036 192.782 141.028 190.165 142.642C187.549 144.257 185.961 147.237 185.559 150.284C184.533 158.049 190.99 165.435 198.581 167.351C206.172 169.267 214.293 166.724 220.916 162.547C225.457 159.682 229.727 155.707 230.942 150.477C231.407 148.484 231.287 146.118 229.773 144.737C226.885 142.097 222.198 145.391 220.874 149.072C217.893 157.352 223.173 167.049 231.085 170.904C238.994 174.76 248.586 173.672 256.653 170.157C264.093 166.913 270.999 161.2 273.186 153.384C273.651 151.724 273.887 149.92 273.31 148.294C272.172 145.093 268.007 143.687 264.817 144.857C261.627 146.026 259.467 149.142 258.569 152.42C256.746 159.075 259.58 166.48 264.716 171.09C269.849 175.697 276.933 177.729 283.831 177.744C296.036 177.771 308.787 170.715 312.531 159.098C313.889 154.882 312.751 148.712 308.335 148.379C306.415 148.236 304.626 149.359 303.217 150.671C295.363 157.991 296.122 171.617 302.962 179.893C318.353 198.52 354.968 195.617 372.206 181.906C374.145 180.361 376.069 178.519 376.622 176.103C377.176 173.688 375.697 170.68 373.224 170.51C371.915 170.42 370.665 171.121 369.697 172.008C365.966 175.441 365.819 181.697 368.559 185.962C371.3 190.228 376.305 192.632 381.326 193.337C386.346 194.037 409.034 195.462 429.341 176.997" stroke="black" stroke-width="0.5" stroke-miterlimit="10"/>
<path d="M426.693 220.786C426.384 218.784 426.051 216.783 425.602 214.759C425.435 214.012 425.269 213.257 424.936 212.568C424.468 211.588 423.697 210.791 422.997 209.962C416.633 202.445 414.976 189.311 418.193 180.156C419.176 177.361 420.659 174.768 422.288 172.298C424.22 169.371 426.388 166.561 429.082 164.32C430.789 162.895 432.767 161.688 434.966 161.358C437.164 161.029 439.615 161.726 440.943 163.515C442.324 165.373 442.212 168.055 441.097 170.084C439.568 172.863 436.499 173.657 434.687 176.095C433.352 177.888 432.961 180.342 433.673 182.459C433.894 183.113 434.257 183.779 434.884 184.066C435.357 184.279 435.906 184.244 436.406 184.1C437.811 183.698 438.891 182.49 439.413 181.124C440.509 178.251 439.27 175.232 440.397 172.29C440.706 171.485 441.504 170.599 442.282 170.982C442.719 171.195 442.894 171.717 443.025 172.186C443.594 174.214 444.721 176.281 445.115 178.282C445.541 180.435 444.632 182.986 444.272 185.099C443.447 189.88 442.282 194.602 440.792 199.221C440.633 199.716 440.466 200.219 440.455 200.742C440.439 201.369 440.648 201.973 440.854 202.565C444.02 211.666 448.263 220.755 450.608 230.088C451.545 233.815 453.492 241.484 450.697 244.697C449.149 246.477 446.652 247.031 444.326 247.437C440.211 248.161 435.376 248.517 432.45 245.537C430.51 243.559 429.984 240.632 429.601 237.892C430.193 234.423 428.064 229.294 427.475 225.833C427.197 224.138 426.953 222.462 426.693 220.786Z" fill="#DA9372"/>
<path d="M365.911 531.199C365.733 531.869 365.497 532.531 365.184 533.181C362.428 538.957 355.448 543.846 350.277 547.992C341.188 555.277 332.033 562.817 324.79 572.003C322.537 574.86 320.176 578.379 321.24 581.859C321.976 584.259 324.209 585.915 326.536 586.848C336.608 590.886 346.158 584.352 354.693 579.78C364.924 574.299 375.155 568.821 385.39 563.344C386.644 562.674 387.933 561.973 388.773 560.924C389.892 559.527 390.043 557.731 390.155 556.032C391.084 542.019 392.01 528.006 392.939 513.993C393.113 511.368 393.241 508.566 391.696 506.297C390.55 504.617 388.622 503.456 386.671 502.473C383.439 500.839 379.754 499.515 376.046 499.941C370.104 500.626 365.811 507.819 365.157 512.491C364.313 518.51 367.499 525.211 365.911 531.199Z" fill="black"/>
<path d="M466.332 579.029C466.948 581.29 467.234 583.701 467.025 586.364C465.965 600.002 458.095 615.675 451.325 627.292C449.037 631.214 446.451 635.414 446.935 639.927C448.82 657.602 474.063 638.266 478.607 633.048C487.402 622.945 493.193 610.415 499.054 598.492C499.758 597.064 500.474 595.554 500.397 593.967C500.339 592.794 499.847 591.687 499.363 590.615C493.286 577.14 486.833 563.773 479.378 550.976C476.56 546.137 473.552 541.105 468.775 538.186C463.998 535.268 456.895 535.333 453.581 539.847C450.531 543.997 451.816 549.807 453.527 554.665C456.829 564.056 463.987 570.435 466.332 579.029Z" fill="black"/>
<path d="M584.919 249.276C586.708 247.488 588.457 245.657 590.118 243.741C596.374 236.513 601.425 227.517 601.011 217.968C600.868 214.608 600.047 211.302 598.928 208.128C597.388 203.753 595.154 199.43 591.457 196.627C587.583 193.693 582.461 192.752 577.623 193.24C572.788 193.728 568.177 195.528 563.792 197.622C548.699 204.833 535.58 215.684 524.021 227.784C513.484 238.817 501.333 247.975 487.324 254.258C486.047 254.831 484.657 255.396 483.283 255.121C482.18 254.901 481.259 254.169 480.395 253.445C468.624 243.617 457.499 226.879 450.182 213.404C441.724 215.819 426.461 218.374 418.003 220.79C419.834 235.778 432.066 254.544 439.723 267.559C445.742 277.79 455.702 287.599 465.473 294.346C480.608 304.797 498.941 304.244 515.846 299.738C529.959 295.976 547.979 291.818 558.233 280.813C563.861 274.774 567.303 267.21 572.842 261.249C576.701 257.095 580.913 253.286 584.919 249.276Z" fill="white"/>
<path d="M664.964 358.774C659.354 375.733 651.392 391.236 640.843 403.294C629.436 416.332 613.704 424.852 597.57 431.165C560.211 445.778 518.776 449.804 479.3 442.658C468.322 440.669 457.27 437.738 447.964 431.58C429.728 419.506 425.284 402.803 445.626 391.805C461.784 383.069 481.874 375.609 499.456 370.914C516.964 366.238 530.726 358.743 541.599 343.619C552.802 328.035 558.504 309.222 563.002 290.564C566.912 274.333 570.059 257.92 572.42 241.391C574.979 223.48 581.416 206.993 598.998 199.507C616.476 192.063 635.447 195.853 649.387 208.584C663.171 221.177 669.489 239.986 672.713 258.377C677.846 287.668 675.818 325.949 664.964 358.774Z" fill="black"/>
<path d="M620.648 225.172C617.316 215.699 612.171 206.258 607.808 197.196C606.032 193.503 603.643 190.809 600.852 187.859C600.628 187.623 600.38 187.371 600.059 187.321C599.501 187.232 599.056 187.759 598.735 188.223C594.113 194.974 588.868 201.795 581.408 205.159C580.023 205.782 578.49 206.285 577.003 205.972C575.238 205.6 573.872 204.121 573.155 202.464C572.439 200.808 572.273 198.977 572.114 197.181C572.184 197.974 569.021 200.165 568.421 200.664C567.144 201.729 566.42 202.526 565.557 203.951C563.803 206.842 562.526 209.846 561.593 213.098C559.754 219.508 559.158 226.163 557.788 232.67C552.186 259.317 543.604 285.342 532.232 310.085C521.772 332.835 525.752 349.449 537.004 371.312C542.598 382.182 549.972 391.898 561.875 394.496C571.278 396.509 581.277 393.478 589.135 387.934C597.283 382.186 603.38 373.956 608.424 365.371C620.803 344.293 627.07 320.15 627.051 295.705C627.032 271.956 628.704 248.064 620.648 225.172Z" fill="white"/>
<path d="M599.021 394.434C598.135 396.559 597.059 398.603 595.82 400.515C588.883 411.214 577.65 418.403 566.041 423.679C547.611 432.056 527.49 436.747 507.186 435.036C487.68 433.395 471.434 424.949 454.15 416.847C452.377 416.015 450.341 417.427 450.504 419.378C451.34 429.315 455.222 438.88 458.729 448.298C471.062 481.391 479.4 515.82 487.708 550.148C490.955 563.572 497.029 570.745 485.265 580.043C473.002 588.962 460.584 596.839 447.333 604.214C433.061 574.287 419.571 543.985 406.885 513.35C399.732 496.074 389.307 480.679 383.002 462.594C376.653 444.385 372.043 425.247 371.838 405.876C371.501 374.123 386.121 340.364 414.627 326.367C458.102 305.022 523.402 327.392 563.567 342.52C570.577 345.16 577.348 348.373 583.704 352.333C588.868 355.55 593.989 359.324 597.403 364.43C603.225 373.14 603.097 384.667 599.021 394.434Z" fill="#355081"/>
<path d="M533.529 322.6C509.339 307.387 490.41 307.964 462.709 299.653C446.83 294.888 411.446 291.265 395.846 296.885C358.193 310.445 355.421 371.189 352.723 404.893C349.119 449.913 342.043 482.638 345.995 527.541C356.432 529.349 390.837 538.349 401.199 536.317C408.655 498.776 416.107 461.235 423.562 423.694C426.241 410.208 428.73 396.702 428.532 382.898C428.242 362.734 436.781 374.518 448.51 383.223C470.049 399.211 492.407 414.416 517.058 425.231C531.783 431.696 548.924 427.496 563.622 422.127C582.555 415.209 599.583 401.909 608.591 383.874C612.942 375.16 615.346 365.626 617.715 356.181C590.006 353.854 556.855 337.271 533.529 322.6Z" fill="#355081"/>
<path d="M520.421 321.524C548.37 345.361 583.545 360.609 620.052 364.708C624.473 348.791 627.609 332.517 629.42 316.097C629.335 316.871 597.86 308.932 594.721 307.933C583.011 304.201 571.599 299.533 560.629 293.986C553.526 290.39 542.346 280.561 536.463 289.797C530.288 299.49 525.829 311.285 520.421 321.524Z" fill="white"/>
<path d="M429.829 526.895C438.748 518.278 439.329 504.362 438.698 491.978C436.867 456.005 439.131 418.43 436.727 382.472C436.166 374.084 426.841 367.67 422.714 360.346C418.588 353.022 409.514 347.699 401.683 350.758C396.423 352.813 393.086 357.942 390.419 362.92C378.078 385.933 375.725 407.398 380.606 433.116C386.045 461.766 395.497 489.648 408.597 515.7C410.188 518.859 410.083 518.719 412.139 521.595C414.194 524.471 416.838 527.17 420.245 528.114C424.402 529.268 426.732 529.891 429.829 526.895Z" fill="#355081"/>
<path d="M634.58 362.401C624.806 358.643 608.416 376.786 601.429 381.613C585.717 392.467 568.414 400.093 550.321 404.87C519.984 412.883 488.753 405.95 458.95 413.022C455.451 413.854 451.328 415.751 451.181 419.347C451.131 420.586 451.611 421.805 452.319 422.823C454.708 426.265 459.213 427.376 463.313 428.227C474.438 430.542 509.06 439.453 509.788 439.705C549.91 438.524 579.167 424.832 617.385 410.494C620.803 406.345 623.935 401.967 626.691 397.341C630.179 391.5 644.745 366.33 634.58 362.401Z" fill="black"/>
<path d="M737.742 313.538C746.006 306.942 756.322 302.417 765.516 297.257C773.366 292.852 776.668 283.201 774.586 274.395C773.513 269.858 770.955 265.724 767.502 262.616C765.864 261.141 758.44 255.257 756.802 258.698C756.129 260.115 757.093 261.71 757.685 263.165C759.547 267.737 757.073 273.586 753.14 276.327C752.575 276.721 751.886 277.039 751.209 276.896C750.702 276.787 750.28 276.431 749.962 276.017C749.072 274.856 748.925 273.245 749.316 271.836C750.144 268.879 752.939 267.187 753.787 264.152C754.019 263.32 753.903 262.136 753.055 261.977C752.575 261.888 752.126 262.205 751.743 262.503C750.078 263.792 747.942 264.783 746.432 266.157C744.806 267.636 744.016 270.222 743.049 272.138C740.866 276.47 738.984 280.956 737.432 285.555C737.265 286.047 737.099 286.55 736.797 286.976C736.437 287.487 735.907 287.85 735.388 288.203C727.425 293.626 718.604 298.403 711.16 304.499C708.183 306.938 702.055 311.936 702.388 316.182C702.574 318.536 704.246 320.467 705.872 322.178C711.585 328.201 719.614 330.443 726.539 324.78C729.678 322.213 732.047 318.838 734.943 316C735.841 315.125 736.774 314.309 737.742 313.538Z" fill="#DA9372"/>
<path d="M648.965 217.391C642.636 208.801 634.1 202.081 623.823 197.506C618.237 195.017 612.423 192.729 606.314 192.396C597.276 191.904 583.48 196.383 583.452 207.032C583.425 218.614 585.5 231.624 586.797 243.214C587.258 247.321 587.064 253.081 588.647 256.898C589.944 260.03 592.843 262.433 594.605 265.476C598.696 272.544 600.19 280.84 602.312 288.628C607.58 307.987 617.412 326.49 632.54 339.667C647.668 352.844 668.444 360.172 688.205 356.711C710.796 352.755 731.602 338.819 744.268 319.701C736.313 311.204 734.54 295.426 728.444 287.521C718.004 296.432 700.708 302.37 687.396 305.719C682.267 307.008 676.7 307.809 671.807 305.804C659.707 300.841 662.807 279.946 662.44 269.858C662.025 258.435 661.584 246.853 658.22 235.929C656.103 229.042 652.979 222.837 648.965 217.391Z" fill="white"/>
<path d="M557.765 236.25C549.001 256.445 541.971 282.508 529.839 302.026" stroke="black" stroke-width="0.5" stroke-miterlimit="10"/>
<path d="M549.767 358.79H393.326C391.739 358.79 390.585 360.307 391.011 361.84L391.026 361.89C391.317 362.932 392.261 363.648 393.341 363.648H549.767C551.087 363.648 552.16 362.58 552.167 361.26C552.167 361.244 552.167 361.229 552.167 361.209C552.179 359.874 551.103 358.79 549.767 358.79Z" fill="black"/>
<path d="M522.945 363.644H392.025C391.023 363.644 390.136 362.982 389.857 362.018L369.918 293.622C369.496 292.174 370.58 290.73 372.086 290.73H503.006C504.009 290.73 504.895 291.392 505.178 292.356L525.121 360.752C525.535 362.2 524.451 363.644 522.945 363.644Z" fill="black"/>
<path d="M450.779 327.187C450.779 330.377 448.193 332.963 445.007 332.963C441.822 332.963 439.236 330.377 439.236 327.187C439.236 323.998 441.822 321.408 445.007 321.408C448.193 321.408 450.779 323.998 450.779 327.187Z" fill="#DFF2DC"/>
<path d="M627.284 364.709H616.739V655.047H627.284V364.709Z" fill="#FF9C49"/>
<path d="M142.537 364.709H131.992V655.047H142.537V364.709Z" fill="#FF9C49"/>
<path d="M669.632 363.644H99.7314V369.66H669.632V363.644Z" fill="#FF9C49"/>
<path d="M321.697 364.318C335.528 363.71 349.405 363.807 363.221 364.867C375.194 365.785 362.989 352.395 359.47 349.848C352.905 345.09 344.791 343.244 336.774 343.488C331.041 343.662 325.39 345.009 319.653 345.203C307.219 345.625 293.493 334.879 281.214 339.234C277.301 340.619 271.61 345.075 269.737 348.896C266.566 355.364 268.514 360.768 275.241 363.346C285.352 367.217 297.747 365.924 308.292 365.123C312.755 364.786 317.222 364.515 321.697 364.318Z" fill="#DA9372"/>
<path d="M380.021 650.661C379.808 649.415 384.728 645.447 384.376 644.251C366.736 584.599 339.654 524.824 318.643 466.275C311.733 447.021 301.107 434.088 281.28 427.229C270.84 423.617 259.688 422.7 248.675 421.809C220.614 419.545 192.549 417.276 164.489 415.012C143.098 413.285 111.596 411.125 97.6602 431.506C84.9285 450.118 93.7234 487.314 109.854 502.426C126.828 518.336 151.916 510.679 172.3 509.127C206.698 506.51 242.028 498.335 274.459 486.369C268.242 488.661 301.761 560.669 305.419 567.11C320.702 594.006 364.154 657.641 368.377 659.634C372.6 661.632 375.197 657.025 377.11 652.763C377.868 651.06 380.338 652.531 380.021 650.661Z" fill="#DA9372"/>
<path d="M105.55 180.663C105.666 176.614 105.945 172.577 106.486 168.57C108.36 154.712 116.028 145.302 126.53 136.522C130.227 133.433 134.88 131.041 139.676 131.502C144.952 132.009 148.738 138.264 150.983 142.542C151.889 144.268 152.799 146.084 153.279 147.973C153.809 150.067 153.976 152.119 155.152 154.004C155.958 155.293 157.092 156.349 157.905 157.631C159.19 159.648 159.608 162.09 159.832 164.471C160.39 170.386 160.56 178.615 157.87 184.093C154.68 190.592 145.916 190.712 143.907 198.667C141.724 207.303 147.585 224.273 149.539 232.871C149.915 234.512 151.688 235.48 150.976 237.005C150.407 238.224 149.253 239.045 148.146 239.812C141.813 244.201 135.294 250.178 127.119 250.147C122.923 250.132 119.098 248.212 115.003 247.674C110.938 247.139 107.632 246.71 103.959 244.526C103.44 244.217 102.906 243.861 102.666 243.311C102.375 242.645 102.584 241.875 102.786 241.178C108.391 221.699 104.957 200.978 105.55 180.663Z" fill="#DA9372"/>
<path d="M255.794 666.014C263.253 631.442 270.86 581.719 277.816 545.843C284.493 511.407 292.274 477.749 291.124 442.658C290.88 435.183 288.14 427.263 282.244 422.661C279.151 420.245 275.288 419.072 271.487 418.089C242.207 410.506 211.498 411.245 181.262 412.035C155.346 412.712 128.063 411.098 102.391 414.389C101.613 422.429 105.677 433.395 112.44 438.451C117.77 442.438 124.788 443.169 131.423 443.665C154.885 445.411 179.021 448.701 202.212 452.607C210.124 453.938 218.334 456.009 225.945 458.564C234.739 461.514 234.565 459.311 235.15 469.438C235.494 475.442 232.963 482.165 231.569 487.933C218.965 539.971 225.008 615.935 234.426 667.988C235.622 674.596 241.196 669.958 247.483 667.593C249.898 666.687 255.573 667.02 255.794 666.014Z" fill="#DA9372"/>
<path d="M71.7289 357.629C74.9302 376.829 81.0928 395.185 88.0606 413.258C94.2309 429.261 100.575 445.565 111.464 458.816C125.683 476.115 147.333 484.581 167.485 492.733C178.835 497.324 192.306 498.842 204.232 501.249C218.04 504.037 241.882 512.146 254.915 504.664C260.489 501.466 264.627 496.298 268.421 491.107C282.264 472.167 293.389 451.244 301.351 429.18C301.87 427.743 281.849 418.86 278.71 417.273C267.229 411.462 251.598 404.309 239.207 400.898C221.896 396.133 204.523 391.585 187.092 387.261C181.521 385.879 164.497 384.822 160.912 380.401C157.885 376.67 159.863 367.414 160.397 363.129C164.071 333.648 183.101 285.013 175.343 254.544C169.556 231.818 155.717 221.041 129.546 217.89C101.59 214.53 88.7148 249.264 81.1277 269.657C70.7302 297.609 66.898 328.198 71.7289 357.629Z" fill="#355081"/>
<path d="M82.0527 510.784C85.4746 514.14 89.965 515.92 94.2695 518.185C131.562 537.826 198.399 525.389 247.974 517.62C260.373 515.677 264.666 504.315 254.33 496.128C231.197 477.811 202.506 468.307 174.546 458.878C168.139 456.718 161.214 454.136 157.738 448.337C156.298 445.929 155.59 443.165 154.901 440.448C149.202 417.927 143.412 395.413 136.475 373.236C126.534 341.456 118.239 304.004 77.2643 302.603C73.2578 302.467 69.1933 302.792 65.4036 304.097C58.7107 306.396 53.3301 311.61 49.5017 317.564C41.2836 330.342 39.2591 343.774 40.1494 358.693C41.721 385.043 45.0578 411.71 48.8552 437.781C52.85 465.199 62.0126 491.138 82.0527 510.784Z" fill="black"/>
<path d="M153.143 122.703C150.252 118.344 144.685 115.727 139.583 116.885C136.87 117.5 134.481 119.06 132.155 120.589C124.305 125.761 115.858 130.785 109.595 137.92C103.367 145.011 100.289 153.613 96.7124 162.164C87.6581 183.81 74.9885 203.668 64.7923 224.757C62.1291 230.27 59.5742 236.227 60.3523 242.297C61.4168 250.588 68.6671 257.014 76.5988 259.654C84.5304 262.294 93.1085 261.884 101.454 261.446C110.214 260.986 119.663 260.266 126.352 254.591C133.68 248.382 135.639 237.961 136.204 228.377C137.098 213.272 135.685 198.09 137.187 183.009C137.799 176.873 140.3 171.547 141.306 165.744C142.216 160.491 138.445 154.669 142.851 150.187C145.262 147.733 148.564 146.304 150.991 143.866C152.683 142.17 153.891 140.029 154.676 137.765C156.395 132.826 156.035 127.062 153.143 122.703Z" fill="#1C0C00"/>
<path d="M308.029 334.228C301.483 326.343 275.988 325.488 266.214 323.316C249.345 319.565 231.859 315.536 218.233 304.906C199.796 290.529 190.711 267.884 177.708 249.129C171.352 239.959 163.362 229.89 153.182 224.738C138.162 217.135 135.515 243.88 134.179 253.855C134.005 255.148 133.858 256.472 134.137 257.746C136.037 266.417 136.726 275.529 138.971 284.413C141.751 295.422 145.417 298.941 153.658 305.734C163.835 314.119 172.161 324.369 181.061 334.004C188.264 341.8 195.844 349.197 205.092 354.88C216.782 362.068 230.992 364.96 244.425 366.725C258.31 368.549 272.419 369.005 286.405 368.374C289.761 368.223 293.114 368.003 296.458 367.674C299.574 367.368 306.403 367.945 307.955 364.391C309.91 359.92 310.061 353.641 310.529 348.818C310.982 344.049 311.296 338.161 308.029 334.228Z" fill="#355081"/>
<path d="M433.932 637.682C431.912 633.997 426.829 634.423 422.966 635.565C421.057 636.13 419.165 636.749 417.272 637.384C411.837 639.207 406.433 641.131 400.816 642.114C396.883 642.803 392.807 642.993 388.859 642.343C387.14 642.06 385.321 641.104 383.544 640.202C376.084 644.905 368.459 649.384 360.612 653.301C361.983 657.695 363.546 662.081 365.226 666.281C365.869 667.887 371.226 681.482 372.291 681.482C375.639 680.185 378.852 678.498 381.852 676.458C380.958 674.483 380.536 672.273 380.641 670.086C390.144 669.06 399.43 666.378 408.442 663.018C417.508 659.638 426.806 655.179 432.365 646.848C434.153 644.166 435.492 640.523 433.932 637.682Z" fill="#1C0C00"/>
<path d="M306.376 672.734C305.861 668.565 300.979 667.078 296.965 666.714C294.983 666.532 292.994 666.409 291.004 666.3C285.283 665.983 279.546 665.778 273.968 664.612C270.058 663.796 266.203 662.472 262.773 660.405C261.283 659.507 259.943 657.943 258.627 656.452C249.96 658.067 241.219 659.406 232.479 660.149C232.13 664.74 231.96 669.393 231.968 673.914C231.972 675.645 231.921 690.254 232.916 690.649C236.504 690.683 240.116 690.3 243.658 689.514C243.557 687.35 243.983 685.14 244.889 683.147C254.098 685.705 263.717 686.646 273.337 686.855C283.01 687.064 293.299 686.36 301.541 680.673C304.185 678.838 306.774 675.947 306.376 672.734Z" fill="#1C0C00"/>
<path d="M144.759 169.666C144.433 168.667 143.88 167.804 143.094 167.076C142.552 166.658 142.01 166.236 141.464 165.818C140.21 165.09 138.855 164.722 137.404 164.718C136.691 164.815 135.979 164.908 135.263 165.005C133.901 165.388 132.716 166.077 131.713 167.076C131.613 167.177 131.516 167.273 131.415 167.374C130.63 168.102 130.076 168.965 129.751 169.964C129.248 170.924 129.015 171.957 129.058 173.064C129.015 174.171 129.248 175.205 129.751 176.165C130.076 177.164 130.63 178.023 131.415 178.755C131.957 179.173 132.503 179.595 133.045 180.013C134.299 180.74 135.654 181.108 137.106 181.112C137.818 181.015 138.53 180.922 139.246 180.826C140.609 180.442 141.793 179.753 142.796 178.755C142.893 178.654 142.993 178.557 143.094 178.457C143.88 177.729 144.433 176.866 144.759 175.867C145.262 174.907 145.494 173.873 145.451 172.766C145.49 171.659 145.262 170.626 144.759 169.666Z" fill="#DA9372"/>
<path d="M137.245 176.792C136.943 176.254 136.715 175.669 136.483 175.1C136.378 174.837 136.289 174.566 136.231 174.288C136.111 173.684 135.995 173.049 136.022 172.426C136.045 171.949 136.123 171.462 136.204 170.993C136.227 170.862 136.258 170.73 136.301 170.602C136.479 170.041 136.73 169.53 137.017 169.038C135.635 169.116 134.288 169.894 133.618 171.117C132.778 172.654 133.041 174.706 134.207 176.018C134.667 176.537 135.271 176.955 135.956 177.067C136.425 177.144 136.889 177.075 137.346 176.943C137.315 176.889 137.272 176.846 137.245 176.792Z" fill="#1C0C00"/>
<path d="M136.916 180.942C139.088 180.946 141.24 179.947 142.641 178.294" stroke="#1C0C00" stroke-width="0.5" stroke-miterlimit="10"/>
<path d="M179.771 332.467C170.733 318.57 163.502 303.505 158.311 287.761" stroke="#1C0C00" stroke-width="0.5" stroke-miterlimit="10"/>
<path d="M283.819 519.373C280.672 512.115 277.525 504.861 274.374 497.603C273.976 496.686 273.565 495.745 272.872 495.021C271.324 493.403 268.618 493.117 267.399 491.235" stroke="#1C0C00" stroke-width="0.5" stroke-miterlimit="10"/>
<path d="M122.88 509.591L93.6038 681.753" stroke="black" stroke-miterlimit="10"/>
<path d="M183.205 509.591L212.477 681.753" stroke="black" stroke-miterlimit="10"/>
<path d="M106.684 604.732H198.236" stroke="black" stroke-width="2" stroke-miterlimit="10"/>
<path d="M483.384 256.128C482.83 259.081 482.668 262.105 482.904 265.101" stroke="black" stroke-width="0.5" stroke-miterlimit="10"/>
<path d="M567.252 171.508C567.825 172.008 567.872 174.237 568.003 174.977C569.049 180.814 569.575 186.744 569.575 192.675C569.575 194.792 569.486 196.91 569.381 199.023C573.694 204.477 583.232 205.418 590.215 203.513C594.717 202.286 598.944 200.045 602.652 197.099C602.397 195.57 601.936 194.045 601.487 192.555C597.272 178.53 598.782 163.53 598.255 148.894C597.992 141.651 596.455 135.326 594.698 128.382C594.067 125.889 594.334 123.353 593.645 120.802C592.778 117.589 591.698 114.345 589.847 111.547C584.904 104.072 574.452 101.107 566.029 104.165C560.451 106.189 553.731 111.469 550.681 116.707C546.725 123.5 547.762 134.73 547.917 142.286C547.932 143.08 547.956 143.873 547.987 144.671C548.211 150.473 548.927 156.338 551.583 161.463C553.286 164.746 555.918 167.637 559.147 169.472C560.827 170.428 562.677 171.106 564.601 171.342C565.174 171.415 566.838 171.148 567.252 171.508Z" fill="#DA9372"/>
<path d="M586.813 95.641C585.671 95.672 584.521 95.7687 583.391 95.8578C573.326 96.6591 561.605 94.6849 552.802 100.53C547.689 103.925 543.183 109.093 542.838 115.224C542.722 117.303 543.342 119.734 545.258 120.555C550.418 122.765 554.351 120.81 559.921 120.059C565.054 119.366 570.566 119.61 574.995 122.3C577.29 123.694 579.175 125.676 581.386 127.209C583.592 128.742 586.364 129.837 588.95 129.113C590.386 128.711 591.617 127.786 592.697 126.76C597.911 121.805 601.062 112.371 599.649 105.299C598.933 101.711 596.753 98.2849 593.444 96.7326C591.384 95.761 589.108 95.5752 586.813 95.641Z" fill="black"/>
<path d="M575.2 99.1751C574.635 99.9648 574.371 100.925 574.495 102.074C575.831 114.748 579.307 127.162 582.361 139.503C584.571 148.441 584.598 163.1 597.326 158.064C600.876 156.659 603.806 154.027 606.326 151.162C613.58 142.913 617.866 132.202 618.675 121.275C619.592 108.891 617.111 102.458 605.029 98.2771C600.013 96.539 579.365 93.3377 575.2 99.1751Z" fill="black"/>
<path d="M595.042 144.469C595.042 148.6 591.392 151.952 586.886 151.952C582.38 151.952 578.73 148.604 578.73 144.469C578.73 140.339 582.38 136.987 586.886 136.987C591.392 136.987 595.042 140.339 595.042 144.469Z" fill="#DA9372"/>
<path d="M588.229 140.312C585.686 141.326 584.556 144.86 586.042 147.16L588.229 140.312Z" fill="black"/>
<path d="M405.213 513.544C410.37 472.833 416.079 432.195 422.339 391.639C423.535 383.885 428.555 373.24 436.994 371.13" stroke="black" stroke-width="0.5" stroke-miterlimit="10"/>
<path d="M630.45 82.7197C629.358 72.3958 621.063 63.5157 610.499 62.8887C599.869 62.2538 589.669 70.6654 587.432 80.908C586 87.4577 587.958 94.2629 592.046 99.419C592.805 100.863 593.73 102.218 594.841 103.422C598.034 106.875 602.122 108.133 606.334 107.765C606.647 107.835 606.957 107.9 607.271 107.978C608.122 108.183 608.784 107.838 609.175 107.289C610.069 107.056 610.96 106.778 611.838 106.414C621.655 102.342 631.708 94.6036 630.45 82.7197Z" fill="#1C0C00"/>
<path d="M435.632 174.593C440.966 176.455 445.824 179.56 449.997 183.369C466.263 198.23 470.85 221.815 482.989 240.199C490.785 252.009 501.678 261.435 513.791 268.623C519.523 272.026 524.614 272.792 530.68 274.844C538.696 277.557 546.167 281.27 554.455 283.317C567.33 286.503 580.685 287.061 593.924 287.92C607.158 288.776 620.544 289.979 633.063 294.365C645.582 298.751 657.315 306.675 663.806 318.241C666.125 322.372 667.751 326.994 667.728 331.728C667.685 340.589 654.315 353.978 648.775 341.049C642.876 327.276 664.484 323.537 673.162 323.154C687.431 322.527 702.222 325.352 716.072 320.707C729.93 316.062 740.041 305.278 747.311 292.933C751.507 285.807 754.43 277.794 754.77 269.525C754.887 266.703 754.705 263.831 755.444 261.106C756.807 256.089 761.235 254.08 766.294 254.417C772.712 254.843 778.794 258.76 781.836 264.427C784.426 269.246 784.825 274.906 785.099 280.368C785.289 284.092 785.448 287.823 786.025 291.508C786.296 293.235 786.667 294.965 787.438 296.533C788.204 298.093 789.342 299.448 790.608 300.64C794.053 303.888 798.768 306.063 803.475 305.525" stroke="black" stroke-width="0.5" stroke-miterlimit="10"/>
<path d="M551.029 154.162C555.949 157.011 562.708 156.199 566.811 152.266" stroke="black" stroke-width="0.5" stroke-miterlimit="10"/>
<path d="M769.851 265.635C768.64 263.541 766.917 261.783 765.067 260.219C763.848 259.186 762.539 258.21 761.045 257.649C759.547 257.084 757.828 256.964 756.369 257.622C754.464 258.481 752.773 261.632 754.398 263.455C754.828 263.939 755.424 264.237 755.943 264.621C757.383 265.677 758.242 267.392 758.548 269.154C758.854 270.915 758.657 272.723 758.312 274.476" fill="#DA9372"/>
<path d="M626.792 335.386C620.621 320.758 617.126 305.007 616.526 289.143C616.061 276.803 617.327 264.369 615.605 252.145" stroke="black" stroke-width="0.5" stroke-miterlimit="10"/>
<path d="M730.952 194.502C729.168 183.57 719.328 175.201 707.428 175.201C695.529 175.201 685.689 183.574 683.904 194.502H730.952Z" fill="#472C1D"/>
<path d="M332.369 50.9738C321.836 52.557 313.769 61.2667 313.769 71.8074C313.769 82.3481 321.836 91.0616 332.369 92.641V50.9738Z" fill="#472C1D"/>
<path d="M346.901 50.9738C336.368 52.557 328.301 61.2667 328.301 71.8074C328.301 82.3481 336.368 91.0616 346.901 92.641V50.9738Z" fill="#472C1D"/>
<path d="M367.974 92.3893C357.442 93.9725 349.374 102.682 349.374 113.223C349.374 123.764 357.442 132.477 367.974 134.056V92.3893Z" fill="#472C1D"/>
<path d="M428.644 67.6537C417 69.4034 408.082 79.0344 408.082 90.6899C408.082 102.345 417 111.976 428.644 113.726V67.6537Z" fill="#E8BC92"/>
<path d="M495.345 111.88C506.989 110.13 515.908 100.499 515.908 88.8435C515.908 77.188 506.989 67.557 495.345 65.8073V111.88Z" fill="#E8BC92"/>
<path d="M485.807 66.0164H438.186V111.671H485.807V66.0164Z" fill="#472C1D"/>
<path d="M730.499 172.813C728.943 161.916 719.223 153.512 707.428 153.512C695.634 153.512 685.91 161.916 684.357 172.813H730.499Z" fill="#472C1D"/>
<path d="M253.285 81.4576H195.693V34.6498" fill="#472C1D"/>
<path d="M187.335 14.3853H244.932V61.1931" fill="#E8BC92"/>
<path d="M252.732 244.701C252.732 234.47 261.027 226.174 271.258 226.174C281.489 226.174 289.785 234.47 289.785 244.701" fill="#472C1D"/>
<path d="M350.826 243.609C350.826 247.221 347.9 250.147 344.288 250.147C340.677 250.147 337.75 247.221 337.75 243.609C337.75 239.997 340.677 237.071 344.288 237.071C347.9 237.071 350.826 239.997 350.826 243.609Z" fill="#E8BC92"/>
</svg>
